<svg width="68" height="40" viewBox="0 0 68 40" fill="none" xmlns="http://www.w3.org/2000/svg">
<path d="M67.3305 20.1433C67.3305 25.2537 63.6846 29.9603 57.6154 33.4122C51.558 36.8573 43.1626 39.001 33.8674 39.001C24.5722 39.001 16.1769 36.8573 10.1195 33.4122C4.05023 29.9603 0.404387 25.2537 0.404387 20.1433C0.404387 15.033 4.05023 10.3264 10.1195 6.87448C16.1769 3.42931 24.5722 1.28561 33.8674 1.28561C43.1626 1.28561 51.558 3.42931 57.6154 6.87448C63.6846 10.3264 67.3305 15.033 67.3305 20.1433Z" stroke="white" stroke-width="0.808774"/>
<path d="M53.7836 20.1433C53.7836 30.5231 44.5245 39.001 33.0208 39.001C21.5171 39.001 12.258 30.5231 12.258 20.1433C12.258 9.76354 21.5171 1.28561 33.0208 1.28561C44.5245 1.28561 53.7836 9.76354 53.7836 20.1433Z" stroke="white" stroke-width="0.808774"/>
<path d="M41.0833 20.1433C41.0833 25.4199 40.1423 30.1776 38.6376 33.601C37.8849 35.3132 36.9992 36.6736 36.0361 37.6003C35.075 38.5251 34.0567 39.001 33.0208 39.001C31.9849 39.001 30.9666 38.5251 30.0055 37.6003C29.0424 36.6736 28.1567 35.3132 27.404 33.601C25.8992 30.1776 24.9583 25.4199 24.9583 20.1433C24.9583 14.8668 25.8992 10.1091 27.404 6.68569C28.1567 4.97342 29.0424 3.61304 30.0055 2.68633C30.9666 1.76153 31.9849 1.28561 33.0208 1.28561C34.0567 1.28561 35.075 1.76153 36.0361 2.68633C36.9992 3.61304 37.8849 4.97342 38.6376 6.68569C40.1423 10.1091 41.0833 14.8668 41.0833 20.1433Z" stroke="white" stroke-width="0.808774"/>
<path d="M7.51439 14.3885C7.51439 14.2628 7.49607 14.166 7.45941 14.0979C7.42799 14.0298 7.373 13.9801 7.29445 13.9486C7.2159 13.9172 7.11117 13.8989 6.98025 13.8936C6.85457 13.8884 6.69747 13.8858 6.50895 13.8858V25.9511C6.69747 25.9511 6.85457 25.9484 6.98025 25.9432C7.11117 25.938 7.2159 25.9196 7.29445 25.8882C7.373 25.8568 7.42799 25.8071 7.45941 25.739C7.49607 25.6709 7.51439 25.574 7.51439 25.4483V14.3885ZM8.51983 25.4483C8.51983 25.7625 8.46223 26.006 8.34702 26.1789C8.23182 26.3464 8.07995 26.4695 7.89143 26.548C7.70291 26.6266 7.48821 26.6737 7.24732 26.6894C7.00644 26.6999 6.76031 26.7051 6.50895 26.7051H5.50352V13.1317H6.50895C6.76031 13.1317 7.00644 13.1396 7.24732 13.1553C7.48821 13.1658 7.70291 13.2103 7.89143 13.2888C8.07995 13.3674 8.23182 13.493 8.34702 13.6659C8.46223 13.8334 8.51983 14.0743 8.51983 14.3885V25.4483Z" fill="white"/>
<path d="M19.2092 13.8858H20.466V13.1317H18.2038V26.7051H19.2092V19.6671V18.913V13.8858Z" fill="white"/>
<path d="M33.3383 14.3885C33.3383 14.2628 33.32 14.166 33.2833 14.0979C33.2519 14.0298 33.1969 13.9801 33.1183 13.9486C33.0398 13.9172 32.9351 13.8989 32.8041 13.8936C32.6785 13.8884 32.5214 13.8858 32.3328 13.8858V25.9511C32.5214 25.9511 32.6785 25.9484 32.8041 25.9432C32.9351 25.938 33.0398 25.9196 33.1183 25.8882C33.1969 25.8568 33.2519 25.8071 33.2833 25.739C33.32 25.6709 33.3383 25.574 33.3383 25.4483V14.3885ZM34.3437 25.4483C34.3437 25.7625 34.2861 26.006 34.1709 26.1789C34.0557 26.3464 33.9038 26.4695 33.7153 26.548C33.5268 26.6266 33.3121 26.6737 33.0712 26.6894C32.8303 26.6999 32.5842 26.7051 32.3328 26.7051H31.3274V13.1317H32.3328C32.5842 13.1317 32.8303 13.1396 33.0712 13.1553C33.3121 13.1658 33.5268 13.2103 33.7153 13.2888C33.9038 13.3674 34.0557 13.493 34.1709 13.6659C34.2861 13.8334 34.3437 14.0743 34.3437 14.3885V25.4483Z" fill="white"/>
<path d="M47.7319 26.7051H48.7374L47.9833 13.1317H46.4751L45.7211 26.7051H46.7265L46.9779 19.6671L47.2292 13.6344L47.4806 19.6671L47.7319 26.7051Z" fill="white"/>
<path d="M61.861 25.4483C61.861 25.5111 61.8532 25.6263 61.8374 25.7939C61.8217 25.9562 61.7668 26.1238 61.6725 26.2966C61.5782 26.4694 61.429 26.6213 61.2248 26.7522C61.0205 26.8883 60.7299 26.9564 60.3529 26.9564C59.9758 26.9564 59.6852 26.8883 59.481 26.7522C59.2767 26.6213 59.1275 26.4694 59.0332 26.2966C58.939 26.1238 58.884 25.9562 58.8683 25.7939C58.8526 25.6263 58.8447 25.5111 58.8447 25.4483V14.3884C58.8447 14.3465 58.8473 14.2837 58.8526 14.1999C58.8578 14.1161 58.8735 14.0245 58.8997 13.925C58.9259 13.8202 58.9704 13.7155 59.0332 13.6108C59.0961 13.5008 59.1825 13.4013 59.2924 13.3123C59.4024 13.2233 59.5438 13.1526 59.7166 13.1002C59.8894 13.0426 60.1015 13.0138 60.3529 13.0138C60.6042 13.0138 60.8163 13.0426 60.9891 13.1002C61.1619 13.1526 61.3033 13.2233 61.4133 13.3123C61.5232 13.4013 61.6097 13.5008 61.6725 13.6108C61.7353 13.7155 61.7798 13.8202 61.806 13.925C61.8322 14.0245 61.8479 14.1161 61.8532 14.1999C61.8584 14.2837 61.861 14.3465 61.861 14.3884V25.4483ZM59.8501 25.4483C59.8501 25.5111 59.8528 25.587 59.858 25.676C59.8632 25.7598 59.8816 25.841 59.913 25.9196C59.9444 25.9981 59.9941 26.0662 60.0622 26.1238C60.1303 26.1761 60.2272 26.2023 60.3529 26.2023C60.4785 26.2023 60.5754 26.1761 60.6435 26.1238C60.7116 26.0662 60.7613 25.9981 60.7927 25.9196C60.8242 25.841 60.8425 25.7598 60.8477 25.676C60.853 25.587 60.8556 25.5111 60.8556 25.4483V14.3884C60.8556 14.3256 60.853 14.2575 60.8477 14.1842C60.8425 14.1109 60.8242 14.0454 60.7927 13.9878C60.7613 13.925 60.7116 13.8726 60.6435 13.8307C60.5754 13.7888 60.4785 13.7679 60.3529 13.7679C60.2272 13.7679 60.1303 13.7888 60.0622 13.8307C59.9941 13.8726 59.9444 13.925 59.913 13.9878C59.8816 14.0454 59.8632 14.1109 59.858 14.1842C59.8528 14.2575 59.8501 14.3256 59.8501 14.3884V25.4483Z" fill="white"/>
<line x1="7.62022" y1="19.7623" x2="31.7508" y2="19.7623" stroke="white" stroke-width="1.18527"/>
<line x1="34.2908" y1="19.7623" x2="58.8447" y2="19.7623" stroke="white" stroke-width="1.18527"/>
<line x1="61.8081" y1="19.7623" x2="67.7349" y2="19.7623" stroke="white" stroke-width="1.18527"/>
<line x1="0.423361" y1="19.7623" x2="6.35016" y2="19.7623" stroke="white" stroke-width="1.18527"/>
</svg>
